<svg id="icon" width="100%" height="100%" viewBox="0 0 160 160" fill="none" xmlns="http://www.w3.org/2000/svg">
<path d="M10.4167 50C10.4167 31.3417 10.4167 22.0083 16.2126 16.2125C22.0084 10.4167 31.3376 10.4167 50.0001 10.4167C68.6584 10.4167 77.9917 10.4167 83.7876 16.2125C89.5834 22.0083 89.5834 31.3375 89.5834 50C89.5834 68.6583 89.5834 77.9917 83.7876 83.7875C77.9917 89.5833 68.6626 89.5833 50.0001 89.5833C31.3417 89.5833 22.0084 89.5833 16.2126 83.7875C10.4167 77.9917 10.4167 68.6625 10.4167 50Z" stroke="black" stroke-width="6" stroke-linecap="round" stroke-linejoin="round"/>
<path d="M25.0001 56.25L31.2501 37.5L39.0626 56.25M25.0001 56.25L22.9167 62.5M25.0001 56.25H39.0626M39.0626 56.25L41.6667 62.5M52.0834 50V40.4167C52.0834 39.6417 52.0834 39.25 52.1834 38.9375C52.286 38.6252 52.461 38.3415 52.6942 38.1098C52.9274 37.8781 53.2121 37.7048 53.5251 37.6042C53.8334 37.5 54.2209 37.5 55.0001 37.5H60.4168C62.0744 37.5 63.6641 38.1585 64.8362 39.3306C66.0083 40.5027 66.6668 42.0924 66.6668 43.75C66.6668 45.4076 66.0083 46.9973 64.8362 48.1694C63.6641 49.3415 62.0744 50 60.4168 50H52.0834ZM52.0834 50V62.5M77.0834 37.5V62.5" stroke="black" stroke-width="4" stroke-linecap="round" stroke-linejoin="round"/>
</svg>
