<svg id="icon" width="100%" height="100%" viewBox="0 0 160 160" fill="none" xmlns="http://www.w3.org/2000/svg">
<path d="M10.5 22C10.5 16.1652 12.7125 10.5695 16.6508 6.44365C20.589 2.31785 25.9305 0 31.5 0C37.0695 0 42.411 2.31785 46.3492 6.44365C50.2875 10.5695 52.5 16.1652 52.5 22V34.9167L57.75 43.1667V55H43.0211C42.424 57.7327 40.9593 60.1722 38.8667 61.9194C36.774 63.6666 34.1773 64.6181 31.5013 64.6181C28.8254 64.6181 26.2286 63.6666 24.1359 61.9194C22.0433 60.1722 20.5786 57.7327 19.9815 55H5.25V43.1667L10.5 34.9167V22ZM25.4835 55C25.9937 56.2272 26.8349 57.2716 27.9036 58.0052C28.9724 58.7387 30.2223 59.1295 31.5 59.1295C32.7777 59.1295 34.0276 58.7387 35.0964 58.0052C36.1651 57.2716 37.0063 56.2272 37.5165 55H25.4835ZM31.5 5.5C27.3228 5.5 23.3168 7.23839 20.3631 10.3327C17.4094 13.4271 15.75 17.6239 15.75 22V36.5833L10.5 44.8332V49.5H52.5V44.8332L47.25 36.5833V22C47.25 17.6239 45.5906 13.4271 42.6369 10.3327C39.6832 7.23839 35.6772 5.5 31.5 5.5Z" fill="black" stroke="1.6"/>
</svg>
