<svg id="icon" width="100%" height="100%" viewBox="0 0 160 160" fill="none" xmlns="http://www.w3.org/2000/svg">
<path fill-rule="evenodd" clip-rule="evenodd" d="M18.75 6.25C17.0924 6.25 15.5027 6.90848 14.3306 8.08058C13.1585 9.25268 12.5 10.8424 12.5 12.5V87.5C12.5 89.1576 13.1585 90.7473 14.3306 91.9194C15.5027 93.0915 17.0924 93.75 18.75 93.75H50C48.5454 91.8151 47.3205 89.7177 46.35 87.5H18.75V12.5H62.5V25C62.5 26.6576 63.1585 28.2473 64.3306 29.4194C65.5027 30.5915 67.0924 31.25 68.75 31.25H81.25V44.375C83.4292 44.8167 85.5125 45.475 87.5 46.35V25C87.4996 23.3425 86.8409 21.7531 85.6687 20.5812L73.1687 8.08125C71.9969 6.90907 70.4075 6.25035 68.75 6.25H18.75ZM100 75C100 81.6304 97.3661 87.9893 92.6777 92.6777C87.9893 97.3661 81.6304 100 75 100C68.3696 100 62.0107 97.3661 57.3223 92.6777C52.6339 87.9893 50 81.6304 50 75C50 68.3696 52.6339 62.0107 57.3223 57.3223C62.0107 52.6339 68.3696 50 75 50C81.6304 50 87.9893 52.6339 92.6777 57.3223C97.3661 62.0107 100 68.3696 100 75ZM89.7125 66.5375C90.0035 66.8278 90.2344 67.1726 90.392 67.5523C90.5495 67.9319 90.6306 68.339 90.6306 68.75C90.6306 69.161 90.5495 69.5681 90.392 69.9477C90.2344 70.3274 90.0035 70.6722 89.7125 70.9625L74.0875 86.5875C73.7972 86.8785 73.4524 87.1094 73.0727 87.267C72.6931 87.4245 72.286 87.5056 71.875 87.5056C71.464 87.5056 71.0569 87.4245 70.6773 87.267C70.2976 87.1094 69.9528 86.8785 69.6625 86.5875L63.4125 80.3375C62.8257 79.7507 62.4961 78.9548 62.4961 78.125C62.4961 77.2952 62.8257 76.4993 63.4125 75.9125C63.9993 75.3257 64.7952 74.9961 65.625 74.9961C66.4548 74.9961 67.2507 75.3257 67.8375 75.9125L71.875 79.9563L85.2875 66.5375C85.5778 66.2465 85.9226 66.0156 86.3023 65.858C86.6819 65.7005 87.089 65.6194 87.5 65.6194C87.911 65.6194 88.3181 65.7005 88.6977 65.858C89.0774 66.0156 89.4222 66.2465 89.7125 66.5375Z" stroke="2" fill="black"/>
</svg>
