<svg id="icon" width="100%" height="100%" viewBox="0 0 160 160" fill="none" xmlns="http://www.w3.org/2000/svg">
<path d="M85.9375 10.9375H14.0625C12.334 10.9375 10.9375 12.334 10.9375 14.0625V85.9375C10.9375 87.666 12.334 89.0625 14.0625 89.0625H49.2188C49.6484 89.0625 50 88.7109 50 88.2812V82.8125C50 82.3828 49.6484 82.0312 49.2188 82.0312H17.9688V17.9688H82.0312V49.2188C82.0312 49.6484 82.3828 50 82.8125 50H88.2812C88.7109 50 89.0625 49.6484 89.0625 49.2188V14.0625C89.0625 12.334 87.666 10.9375 85.9375 10.9375ZM63.7988 58.5352L68.8965 53.4375C68.9997 53.3337 69.0718 53.203 69.1045 53.0603C69.1372 52.9176 69.1291 52.7686 69.0813 52.6303C69.0335 52.4919 68.9478 52.3697 68.834 52.2776C68.7202 52.1855 68.5828 52.1272 68.4375 52.1094L50.918 50.0586C50.4199 50 49.9902 50.4199 50.0488 50.9277L52.0996 68.4473C52.1777 69.0918 52.9687 69.3652 53.4277 68.9062L58.5449 63.7891L83.5645 88.8086C83.8672 89.1113 84.3652 89.1113 84.668 88.8086L88.8086 84.668C89.1113 84.3652 89.1113 83.8672 88.8086 83.5645L63.7988 58.5352Z" stroke="2" fill="black"/>
</svg>
