<svg id="icon" width="100%" height="100%" viewBox="0 0 160 160" fill="none" xmlns="http://www.w3.org/2000/svg">
<path d="M46.875 53.7109L6.25 27.5879V75H43.75V81.25H0V18.75H93.75V48.0957C93.3268 47.8027 92.8548 47.4935 92.334 47.168C91.8132 46.8424 91.276 46.5169 90.7227 46.1914C90.1693 45.8659 89.6159 45.5729 89.0625 45.3125C88.5091 45.0521 87.9883 44.8405 87.5 44.6777V27.5879L46.875 53.7109ZM79.9805 25H13.7695L46.875 46.2891L79.9805 25ZM100 75C100 78.4505 99.349 81.6895 98.0469 84.7168C96.7448 87.7441 94.9707 90.3971 92.7246 92.6758C90.4785 94.9544 87.8255 96.7448 84.7656 98.0469C81.7057 99.349 78.4505 100 75 100C71.5495 100 68.3105 99.349 65.2832 98.0469C62.2559 96.7448 59.6029 94.9707 57.3242 92.7246C55.0456 90.4785 53.2552 87.8255 51.9531 84.7656C50.651 81.7057 50 78.4505 50 75C50 71.5495 50.651 68.3105 51.9531 65.2832C53.2552 62.2559 55.0293 59.6029 57.2754 57.3242C59.5215 55.0456 62.1745 53.2552 65.2344 51.9531C68.2943 50.651 71.5495 50 75 50C78.4505 50 81.6895 50.651 84.7168 51.9531C87.7441 53.2552 90.3971 55.0293 92.6758 57.2754C94.9544 59.5215 96.7448 62.1745 98.0469 65.2344C99.349 68.2943 100 71.5495 100 75ZM75 93.75C77.5716 93.75 79.9967 93.2617 82.2754 92.2852C84.554 91.3086 86.5397 89.974 88.2324 88.2812C89.9251 86.5885 91.276 84.6029 92.2852 82.3242C93.2943 80.0456 93.7826 77.6042 93.75 75C93.75 72.4284 93.2617 70.0033 92.2852 67.7246C91.3086 65.446 89.974 63.4603 88.2812 61.7676C86.5885 60.0749 84.5866 58.724 82.2754 57.7148C79.9642 56.7057 77.5391 56.2174 75 56.25C72.3958 56.25 69.9707 56.7383 67.7246 57.7148C65.4785 58.6914 63.4928 60.026 61.7676 61.7188C60.0423 63.4115 58.6914 65.4134 57.7148 67.7246C56.7383 70.0358 56.25 72.4609 56.25 75C56.25 77.6042 56.7383 80.0293 57.7148 82.2754C58.6914 84.5215 60.026 86.5072 61.7188 88.2324C63.4115 89.9577 65.3971 91.3086 67.6758 92.2852C69.9544 93.2617 72.3958 93.75 75 93.75ZM75 62.5V75H84.375V81.25H68.75V62.5H75Z" stroke="6" fill="black"/>
</svg>
