<svg id="icon" width="100%" height="100%" viewBox="0 0 160 160" fill="none" xmlns="http://www.w3.org/2000/svg">
<path d="M50 33.3333V50L56.25 56.25M81.4375 68.5542C88.2583 72.2375 91.6667 74.0833 91.6667 77.0833C91.6667 80.0833 88.2583 81.9292 81.4375 85.6125L76.7958 88.1167C71.5583 90.9458 68.9417 92.3583 67.6833 91.3333C64.6 88.8125 69.4042 82.3167 70.5833 80.0167C71.7833 77.6833 71.7583 76.4417 70.5833 74.15C69.4042 71.85 64.6 65.3542 67.6833 62.8333C68.9417 61.8083 71.5583 63.2208 76.7958 66.05L81.4375 68.5542Z" stroke="black" stroke-width="6" stroke-linecap="round" stroke-linejoin="round"/>
<path d="M54.2749 91.45C52.8694 91.5917 51.4444 91.6639 49.9999 91.6667C26.9874 91.6667 8.33325 73.0125 8.33325 50C8.33325 26.9875 26.9874 8.33333 49.9999 8.33333C73.0124 8.33333 91.6666 26.9875 91.6666 50C91.661 52.8611 91.3833 55.6389 90.8333 58.3333" stroke="black" stroke-width="6" stroke-linecap="round" stroke-linejoin="round"/>
</svg>
