<svg id="icon" width="100%" height="100%" viewBox="0 0 160 160" fill="none" xmlns="http://www.w3.org/2000/svg">
<path d="M65.625 93.75C60.6805 93.75 55.847 92.2838 51.7358 89.5367C47.6245 86.7897 44.4202 82.8852 42.528 78.3171C40.6358 73.7489 40.1407 68.7223 41.1054 63.8727C42.07 59.0232 44.451 54.5686 47.9473 51.0723C51.4437 47.576 55.8982 45.195 60.7478 44.2304C65.5973 43.2657 70.6239 43.7608 75.1921 45.653C79.7603 47.5452 83.6647 50.7495 86.4118 54.8607C89.1588 58.972 90.625 63.8055 90.625 68.75C90.625 75.3804 87.9911 81.7393 83.3027 86.4277C78.6143 91.1161 72.2554 93.75 65.625 93.75ZM65.625 50C61.9166 50 58.2915 51.0997 55.2081 53.1599C52.1246 55.2202 49.7214 58.1486 48.3023 61.5747C46.8831 65.0008 46.5118 68.7708 47.2353 72.4079C47.9588 76.0451 49.7445 79.386 52.3668 82.0083C54.989 84.6305 58.3299 86.4163 61.9671 87.1397C65.6042 87.8632 69.3742 87.4919 72.8003 86.0727C76.2264 84.6536 79.1548 82.2504 81.2151 79.1669C83.2753 76.0835 84.375 72.4584 84.375 68.75C84.375 63.7772 82.3996 59.0081 78.8833 55.4917C75.367 51.9754 70.5978 50 65.625 50Z" stroke="6" fill="black"/>
<path d="M70.5938 78.125L62.5 70.0312V56.25H68.75V67.4688L75 73.7188L70.5938 78.125Z" stroke="6" fill="black"/>
<path d="M87.5 18.75C87.5 17.0924 86.8415 15.5027 85.6694 14.3306C84.4973 13.1585 82.9076 12.5 81.25 12.5H68.75V6.25H62.5V12.5H37.5V6.25H31.25V12.5H18.75C17.0924 12.5 15.5027 13.1585 14.3306 14.3306C13.1585 15.5027 12.5 17.0924 12.5 18.75V81.25C12.5 82.9076 13.1585 84.4973 14.3306 85.6694C15.5027 86.8415 17.0924 87.5 18.75 87.5H31.25V81.25H18.75V18.75H31.25V25H37.5V18.75H62.5V25H68.75V18.75H81.25V37.5H87.5V18.75Z" stroke="6" fill="black"/>
</svg>
