<svg id="icon" width="100%" height="100%" viewBox="0 0 160 160" fill="none" xmlns="http://www.w3.org/2000/svg">
<path d="M75.4167 38.8333L81.875 25L64.5833 23.5C67.0833 25.625 69.2917 28.25 71.0417 31.25C72.375 33.5417 73.25 35.9583 73.875 38.4167C71.5833 37.8333 69.1667 37.5 66.6667 37.5H64.9167C63.2915 33.7896 60.622 30.6322 57.2335 28.4126C53.8451 26.1931 49.884 25.0074 45.8333 25C34.3333 25 25 34.3333 25 45.8333C25.0074 49.884 26.1931 53.8451 28.4126 57.2335C30.6322 60.622 33.7896 63.2915 37.5 64.9167V66.6667C37.5 82.7917 50.5417 95.8333 66.6667 95.8333C82.7917 95.8333 95.8333 82.7917 95.8333 66.6667C95.8333 53.625 87.25 42.5417 75.4167 38.8333ZM33.3333 45.8333C33.3333 38.9583 38.9583 33.3333 45.8333 33.3333C50.3333 33.3333 54.2917 35.75 56.5 39.375C48.5833 42.2917 42.2917 48.5833 39.375 56.5C37.5366 55.3906 36.015 53.8264 34.9568 51.9581C33.8986 50.0899 33.3395 47.9805 33.3333 45.8333ZM66.6667 87.5C55.1667 87.5 45.8333 78.1667 45.8333 66.6667C45.8333 55.1667 55.1667 45.8333 66.6667 45.8333C78.1667 45.8333 87.5 55.1667 87.5 66.6667C87.5 78.1667 78.1667 87.5 66.6667 87.5ZM68.75 67.7083L80.6667 74.75L77.5417 79.8333L62.5 70.8333V50H68.75V67.7083ZM45.8333 16.6667C42.3333 16.6667 38.9583 17.2917 35.875 18.4167L45.8333 4.16667L55.7917 18.4167C52.7083 17.2917 49.3333 16.6667 45.8333 16.6667ZM20.625 60.4167C22.375 63.5 24.625 66.0833 27.0833 68.2083L9.83333 66.6667L17.1667 50.9583C17.75 54.1667 18.875 57.4167 20.625 60.4167ZM17.125 40.7917L9.75 25L27.0833 23.5417C24.4973 25.726 22.2996 28.3322 20.5833 31.25C18.75 34.3333 17.7083 37.5 17.125 40.7917Z" stroke="6" fill="black"/>
</svg>
